<svg width="220" height="220" viewBox="0 0 220 220" fill="none" xmlns="http://www.w3.org/2000/svg">
  <!-- 上侧深灰模块 (终端) -->
  <path d="M53 32C25.3858 32 3 54.3858 3 82V82C3 109.614 25.3858 132 53 132H98C100.761 132 103 129.761 103 127V37C103 34.2386 100.761 32 98 32H53Z" fill="#4D4D4D"/>
  <!-- 左侧浅灰模块 (编辑器) -->
  <path d="M167.888 117.444C195.502 117.444 217.888 139.83 217.888 167.444V167.444C217.888 195.058 195.502 217.888 167.888 217.888H122.888C120.126 217.888 117.888 215.205 117.888 212.444V122.444C117.888 119.683 120.126 117.444 122.888 117.444H167.888Z" fill="#CCCCCC"/>
  <!-- 跳动光标 (集成在浅灰模块内) -->
  <rect x="180" y="150" width="4" height="40" rx="1" fill="#4D4D4D">
    <animate attributeName="opacity" values="1;0.3;1" dur="5s" repeatCount="indefinite"/>
  </rect>
  <!-- 右下中灰模块 (预览) -->
  <path d="M167.888 102C140.273 102 117.888 79.6142 117.888 52V52C117.888 24.3858 140.273 2 167.888 2H167.888C195.502 2 217.888 24.3858 217.888 52V52C217.888 79.6142 195.502 102 167.888 102Z" fill="#858585"/>
</svg>
