<svg xmlns="http://www.w3.org/2000/svg" viewBox="0 0 200 200">
  <!-- 深色背景 -->
  <linearGradient id="background" x1="0%" y1="0%" x2="100%" y2="100%">
    <stop offset="0%" stop-color="#41d1ff"/>
    <stop offset="100%" stop-color="#bd34fe"/>
  </linearGradient>
  <circle cx="100" cy="100" r="100" fill="url(#background)"/>
  <!-- 核心节点 -->
  <radialGradient id="coreGradient" cx="30%" cy="30%">
    <stop offset="20%" stop-color="#00c6ff"/>
    <stop offset="100%" stop-color="#0072ff"/>
  </radialGradient>
  <circle cx="100" cy="100" r="25" fill="url(#coreGradient)"/>
  <!-- 数据连接线 -->
  <g stroke="#4ecca3" stroke-width="1.5" opacity="0.8">
    <path d="M100,100 C150,60 160,140 100,100" fill="none" stroke-dasharray="4,2"/>
    <path d="M100,100 C40,140 50,60 100,100" fill="none" stroke-dasharray="4,2"/>
    <path d="M100,100 C140,150 60,150 100,100" fill="none" stroke-dasharray="4,2"/>
    <path d="M100,100 C60,50 140,50 100,100" fill="none" stroke-dasharray="4,2"/>
  </g>
  <!-- 外层结构 -->
  <g transform="rotate(-15 100 100)" stroke="#ff7bac" stroke-width="1.2" fill="none">
    <circle cx="100" cy="100" r="60" stroke-dasharray="5,2" opacity="0.7"/>
    <circle cx="100" cy="100" r="75" stroke-dasharray="3,3" opacity="0.6"/>
  </g>
  <!-- 二进制数据点 -->
  <g fill="#ffffff" opacity="0.7">
    <circle cx="145" cy="80" r="1.8"/>
    <circle cx="130" cy="130" r="1.8"/>
    <circle cx="55" cy="110" r="1.5"/>
    <circle cx="70" cy="70" r="2"/>
    <circle cx="85" cy="155" r="2.2"/>
    <circle cx="120" cy="50" r="1.5"/>
  </g>
  <!-- 层次节点 -->
  <g fill="#ffd166">
    <circle cx="120" cy="105" r="5" opacity="0.9"/>
    <circle cx="80" cy="90" r="4" opacity="0.8"/>
    <circle cx="100" cy="130" r="4.5" opacity="0.9"/>
    <circle cx="135" cy="145" r="3" opacity="0.8"/>
  </g>
</svg>
